<svg width="30" height="30" viewBox="0 0 30 30" fill="none" xmlns="http://www.w3.org/2000/svg">
<path fill-rule="evenodd" clip-rule="evenodd" d="M10.2626 6.26045C10.3822 5.13044 11.3383 4.25 12.5 4.25H17.5C18.6617 4.25 19.6178 5.13044 19.7374 6.26045C20.5005 6.27599 21.1603 6.31546 21.7236 6.41895C22.4816 6.55818 23.1267 6.82342 23.6517 7.34835C24.2536 7.95027 24.5125 8.70814 24.6335 9.60825C24.75 10.4752 24.75 11.5775 24.75 12.9451V19.0549C24.75 20.4225 24.75 21.5248 24.6335 22.3918C24.5125 23.2919 24.2536 24.0497 23.6517 24.6517C23.0497 25.2536 22.2919 25.5125 21.3918 25.6335C20.5248 25.75 19.4225 25.75 18.0549 25.75H11.9451C10.5775 25.75 9.47522 25.75 8.60825 25.6335C7.70814 25.5125 6.95027 25.2536 6.34835 24.6517C5.74643 24.0497 5.48754 23.2919 5.36652 22.3918C5.24996 21.5248 5.24998 20.4225 5.25 19.0549V12.9451C5.24998 11.5775 5.24996 10.4752 5.36652 9.60825C5.48754 8.70814 5.74643 7.95027 6.34835 7.34835C6.87328 6.82342 7.51835 6.55818 8.27635 6.41895C8.83973 6.31546 9.49952 6.27599 10.2626 6.26045ZM10.265 7.76087C9.54678 7.7762 8.99336 7.81234 8.54735 7.89426C7.98054 7.99838 7.65246 8.16556 7.40901 8.40901C7.13225 8.68577 6.9518 9.07435 6.85315 9.80812C6.75159 10.5635 6.75 11.5646 6.75 13V19C6.75 20.4354 6.75159 21.4365 6.85315 22.1919C6.9518 22.9257 7.13225 23.3142 7.40901 23.591C7.68577 23.8678 8.07435 24.0482 8.80812 24.1469C9.56347 24.2484 10.5646 24.25 12 24.25H18C19.4354 24.25 20.4365 24.2484 21.1919 24.1469C21.9257 24.0482 22.3142 23.8678 22.591 23.591C22.8678 23.3142 23.0482 22.9257 23.1469 22.1919C23.2484 21.4365 23.25 20.4354 23.25 19V13C23.25 11.5646 23.2484 10.5635 23.1469 9.80812C23.0482 9.07434 22.8678 8.68577 22.591 8.40901C22.3475 8.16556 22.0195 7.99838 21.4527 7.89426C21.0066 7.81234 20.4532 7.7762 19.735 7.76087C19.6058 8.88062 18.6544 9.75 17.5 9.75H12.5C11.3456 9.75 10.3942 8.88062 10.265 7.76087ZM12.5 5.75C12.0858 5.75 11.75 6.08579 11.75 6.5V7.5C11.75 7.91421 12.0858 8.25 12.5 8.25H17.5C17.9142 8.25 18.25 7.91421 18.25 7.5V6.5C18.25 6.08579 17.9142 5.75 17.5 5.75H12.5ZM9.25 13.5C9.25 13.0858 9.58579 12.75 10 12.75H10.5C10.9142 12.75 11.25 13.0858 11.25 13.5C11.25 13.9142 10.9142 14.25 10.5 14.25H10C9.58579 14.25 9.25 13.9142 9.25 13.5ZM12.75 13.5C12.75 13.0858 13.0858 12.75 13.5 12.75H20C20.4142 12.75 20.75 13.0858 20.75 13.5C20.75 13.9142 20.4142 14.25 20 14.25H13.5C13.0858 14.25 12.75 13.9142 12.75 13.5ZM9.25 17C9.25 16.5858 9.58579 16.25 10 16.25H10.5C10.9142 16.25 11.25 16.5858 11.25 17C11.25 17.4142 10.9142 17.75 10.5 17.75H10C9.58579 17.75 9.25 17.4142 9.25 17ZM12.75 17C12.75 16.5858 13.0858 16.25 13.5 16.25H20C20.4142 16.25 20.75 16.5858 20.75 17C20.75 17.4142 20.4142 17.75 20 17.75H13.5C13.0858 17.75 12.75 17.4142 12.75 17ZM9.25 20.5C9.25 20.0858 9.58579 19.75 10 19.75H10.5C10.9142 19.75 11.25 20.0858 11.25 20.5C11.25 20.9142 10.9142 21.25 10.5 21.25H10C9.58579 21.25 9.25 20.9142 9.25 20.5ZM12.75 20.5C12.75 20.0858 13.0858 19.75 13.5 19.75H20C20.4142 19.75 20.75 20.0858 20.75 20.5C20.75 20.9142 20.4142 21.25 20 21.25H13.5C13.0858 21.25 12.75 20.9142 12.75 20.5Z" fill="black"/>
</svg>
