<svg width="25" height="26" viewBox="0 0 30 31" fill="none" xmlns="http://www.w3.org/2000/svg">
<path d="M5.00098 14.749C4.58676 14.749 4.25098 15.0848 4.25098 15.499C4.25098 15.9132 4.58676 16.249 5.00098 16.249L5.00098 14.749ZM19.001 15.499L19.4891 16.0685C19.6553 15.926 19.751 15.718 19.751 15.499C19.751 15.2801 19.6553 15.0721 19.4891 14.9296L19.001 15.499ZM15.9891 11.9296C15.6746 11.66 15.2011 11.6964 14.9315 12.0109C14.662 12.3254 14.6984 12.7989 15.0129 13.0685L15.9891 11.9296ZM15.0129 17.9296C14.6984 18.1991 14.662 18.6726 14.9315 18.9871C15.2011 19.3016 15.6746 19.338 15.9891 19.0685L15.0129 17.9296ZM5.00098 16.249L19.001 16.249L19.001 14.749L5.00098 14.749L5.00098 16.249ZM19.4891 14.9296L15.9891 11.9296L15.0129 13.0685L18.5129 16.0685L19.4891 14.9296ZM18.5129 14.9296L15.0129 17.9296L15.9891 19.0685L19.4891 16.0685L18.5129 14.9296Z" fill="black"/>
<path d="M12.002 10.5C12.0141 8.32497 12.1105 7.14706 12.8789 6.37868C13.7576 5.5 15.1718 5.5 18.0002 5.5L19.0002 5.5C21.8286 5.5 23.2429 5.5 24.1215 6.37868C25.0002 7.25736 25.0002 8.67157 25.0002 11.5L25.0002 19.5C25.0002 22.3284 25.0002 23.7426 24.1215 24.6213C23.2429 25.5 21.8286 25.5 19.0002 25.5H18.0002C15.1718 25.5 13.7576 25.5 12.8789 24.6213C12.1105 23.8529 12.0141 22.675 12.002 20.5" stroke="black" stroke-width="1.5" stroke-linecap="round"/>
</svg>
