<svg width="20" height="20" viewBox="0 0 20 20" fill="none" xmlns="http://www.w3.org/2000/svg">
<path opacity="0.5" d="M4.66675 16.6665H15.3334" stroke="black" stroke-opacity="0.7" stroke-width="1.5" stroke-linecap="round"/>
<path d="M11.7531 3.94778L11.2588 4.44211L6.71412 8.98678C6.4063 9.2946 6.25239 9.44851 6.12003 9.61821C5.96389 9.81839 5.83002 10.035 5.7208 10.2642C5.62821 10.4585 5.55938 10.6649 5.42171 11.0779L4.83838 12.8279L4.69579 13.2557C4.62804 13.4589 4.68094 13.683 4.83242 13.8345C4.9839 13.986 5.20796 14.0389 5.4112 13.9711L5.83897 13.8285L7.58898 13.2452C8.00196 13.1075 8.20845 13.0387 8.40274 12.9461C8.63192 12.8369 8.84852 12.703 9.0487 12.5469C9.21841 12.4145 9.37232 12.2606 9.68014 11.9528L14.2248 7.40813L14.7191 6.91379C15.5382 6.09475 15.5382 4.76682 14.7191 3.94778C13.9001 3.12874 12.5722 3.12874 11.7531 3.94778Z" stroke="black" stroke-opacity="0.7" stroke-width="1.5"/>
</svg>
