<svg width="25" height="26" viewBox="0 0 30 31" fill="none" xmlns="http://www.w3.org/2000/svg">
<path d="M22.2264 11.5012L22.7286 12.0582V12.0582L22.2264 11.5012ZM22.4116 11.3342L21.9094 10.7772V10.7772L22.4116 11.3342ZM7.77364 11.5012L7.27138 12.0582V12.0582L7.77364 11.5012ZM7.58835 11.3342L8.09061 10.7772H8.09061L7.58835 11.3342ZM11.5245 5.69993L11.7153 4.9746L11.5245 5.69993ZM11.0344 5.57103L10.8437 6.29636L11.0344 5.57103ZM18.9656 5.57103L19.1563 6.29636L18.9656 5.57103ZM18.4755 5.69993L18.6662 6.42526V6.42526L18.4755 5.69993ZM9.46683 5.77565L9.0877 5.12854V5.12854L9.46683 5.77565ZM7.81923 6.86582L7.35016 6.28061L7.35016 6.28061L7.81923 6.86582ZM7.40129 7.22818L7.91031 7.779H7.91031L7.40129 7.22818ZM22.5987 7.22818L23.1077 6.67736V6.67736L22.5987 7.22818ZM22.1808 6.86582L21.7117 7.45103L21.7117 7.45103L22.1808 6.86582ZM20.5332 5.77565L20.154 6.42277V6.42277L20.5332 5.77565ZM11.2839 25.1696L11.4196 24.432H11.4196L11.2839 25.1696ZM18.7161 25.1696L18.5804 24.432L18.7161 25.1696ZM17.5274 6.40278L18.161 6.80423L18.161 6.80423L17.5274 6.40278ZM12.4726 6.40278L13.1061 6.00133L12.4726 6.40278ZM6.00003 9.21612L5.25004 9.22045L6.00003 9.21612ZM21.3547 12.4693L20.6675 12.1688L20.6675 12.1689L21.3547 12.4693ZM8.64528 12.4693L9.33248 12.1689V12.1688L8.64528 12.4693ZM9.22555 24.3116L9.81155 23.8435L9.81155 23.8435L9.22555 24.3116ZM20.7745 24.3116L20.1884 23.8435L20.7745 24.3116ZM9.52667 21.765V13.7955H8.02667V21.765H9.52667ZM21.9733 21.765V13.7955H20.4733V21.765H21.9733ZM22.7286 12.0582L22.9139 11.8911L21.9094 10.7772L21.7241 10.9442L22.7286 12.0582ZM8.2759 10.9442L8.09061 10.7772L7.0861 11.8911L7.27138 12.0582L8.2759 10.9442ZM11.7153 4.9746L11.2252 4.8457L10.8437 6.29636L11.3338 6.42526L11.7153 4.9746ZM18.7748 4.8457L18.2847 4.9746L18.6662 6.42526L19.1563 6.29636L18.7748 4.8457ZM9.0877 5.12854C8.57345 5.42983 7.86698 5.86636 7.35016 6.28061L8.28831 7.45103C8.71427 7.10959 9.34033 6.71901 9.84597 6.42277L9.0877 5.12854ZM7.35016 6.28061C7.19768 6.40283 7.04368 6.53744 6.89227 6.67736L7.91031 7.779C8.04253 7.65681 8.16949 7.54626 8.28831 7.45103L7.35016 6.28061ZM23.1077 6.67736C22.9563 6.53745 22.8023 6.40283 22.6498 6.28061L21.7117 7.45103C21.8305 7.54626 21.9575 7.65681 22.0897 7.779L23.1077 6.67736ZM22.6498 6.28061C22.133 5.86636 21.4266 5.42983 20.9123 5.12854L20.154 6.42277C20.6597 6.71901 21.2857 7.10959 21.7117 7.45103L22.6498 6.28061ZM11.1482 25.9073C12.1799 26.097 13.4821 26.25 15 26.25V24.75C13.5828 24.75 12.3717 24.6072 11.4196 24.432L11.1482 25.9073ZM15 26.25C16.5179 26.25 17.8201 26.097 18.8518 25.9073L18.5804 24.432C17.6283 24.6072 16.4172 24.75 15 24.75V26.25ZM18.2847 4.9746C17.7068 5.12658 17.2135 5.497 16.8939 6.00133L18.161 6.80423C18.2852 6.6082 18.4679 6.47743 18.6662 6.42526L18.2847 4.9746ZM13.1061 6.00133C12.7865 5.497 12.2932 5.12658 11.7153 4.9746L11.3338 6.42526C11.5321 6.47743 11.7148 6.6082 11.8391 6.80423L13.1061 6.00133ZM11.2252 4.8457C10.5138 4.6586 9.74671 4.74244 9.0877 5.12854L9.84597 6.42277C10.1413 6.24974 10.4953 6.20475 10.8437 6.29636L11.2252 4.8457ZM11.8391 6.80423C13.3359 9.16633 16.6641 9.16633 18.161 6.80423L16.8939 6.00133C15.9861 7.43397 14.0139 7.43397 13.1061 6.00133L11.8391 6.80423ZM19.1563 6.29636C19.5047 6.20475 19.8587 6.24974 20.154 6.42277L20.9123 5.12854C20.2533 4.74244 19.4862 4.6586 18.7748 4.8457L19.1563 6.29636ZM8.09061 10.7772C7.54474 10.2849 7.20043 9.97167 6.98073 9.70237C6.78299 9.45999 6.75069 9.32945 6.75001 9.2118L5.25004 9.22045C5.25333 9.79214 5.48708 10.2444 5.81845 10.6506C6.12786 11.0298 6.57573 11.4309 7.0861 11.8911L8.09061 10.7772ZM6.89227 6.67736C6.44254 7.09296 6.03538 7.46589 5.75428 7.82985C5.44607 8.22891 5.24685 8.66795 5.25004 9.22045L6.75001 9.2118C6.74922 9.07495 6.78222 8.95287 6.94143 8.74673C7.12775 8.50549 7.42321 8.22913 7.91031 7.779L6.89227 6.67736ZM22.9139 11.8911C23.4243 11.4309 23.8721 11.0298 24.1816 10.6506C24.5129 10.2444 24.7467 9.79214 24.75 9.22045L23.25 9.2118C23.2493 9.32945 23.217 9.45999 23.0193 9.70237C22.7996 9.97167 22.4553 10.2849 21.9094 10.7772L22.9139 11.8911ZM22.0897 7.779C22.5768 8.22913 22.8722 8.50549 23.0586 8.74673C23.2178 8.95287 23.2508 9.07495 23.25 9.2118L24.75 9.22045C24.7531 8.66795 24.5539 8.22891 24.2457 7.82985C23.9646 7.46589 23.5575 7.09296 23.1077 6.67736L22.0897 7.779ZM21.9733 13.7955C21.9733 13.0456 21.9881 12.8928 22.0419 12.7697L20.6675 12.1689C20.4586 12.6468 20.4733 13.1778 20.4733 13.7955H21.9733ZM21.7241 10.9442C21.2791 11.3455 20.8786 11.6859 20.6675 12.1688L22.0419 12.7697C22.0936 12.6516 22.1866 12.547 22.7286 12.0582L21.7241 10.9442ZM9.52667 13.7955C9.52667 13.1778 9.54143 12.6468 9.33248 12.1689L7.95808 12.7697C8.01191 12.8928 8.02667 13.0456 8.02667 13.7955H9.52667ZM7.27138 12.0582C7.81339 12.547 7.90643 12.6516 7.95808 12.7697L9.33248 12.1688C9.12136 11.6859 8.72089 11.3455 8.2759 10.9442L7.27138 12.0582ZM8.02667 21.765C8.02667 22.4062 8.025 22.963 8.09001 23.4277C8.15952 23.9244 8.31029 24.3675 8.63954 24.7797L9.81155 23.8435C9.69192 23.6938 9.61826 23.5251 9.57554 23.2198C9.52834 22.8824 9.52667 22.4469 9.52667 21.765H8.02667ZM11.4196 24.432C10.2814 24.2227 10.0552 24.1486 9.81155 23.8435L8.63954 24.7797C9.29365 25.5986 10.1404 25.7219 11.1482 25.9073L11.4196 24.432ZM20.4733 21.765C20.4733 22.4469 20.4717 22.8824 20.4245 23.2198C20.3817 23.5251 20.3081 23.6938 20.1884 23.8435L21.3605 24.7797C21.6897 24.3675 21.8405 23.9244 21.91 23.4277C21.975 22.963 21.9733 22.4062 21.9733 21.765H20.4733ZM18.8518 25.9073C19.8596 25.7219 20.7064 25.5986 21.3605 24.7797L20.1884 23.8435C19.9448 24.1486 19.7186 24.2227 18.5804 24.432L18.8518 25.9073Z" fill="black"/>
</svg>
