<svg width="25" height="26" viewBox="0 0 30 31" fill="none" xmlns="http://www.w3.org/2000/svg">
<path fill-rule="evenodd" clip-rule="evenodd" d="M15 4.75C12.3766 4.75 10.25 6.87665 10.25 9.5C10.25 12.1234 12.3766 14.25 15 14.25C17.6234 14.25 19.75 12.1234 19.75 9.5C19.75 6.87665 17.6234 4.75 15 4.75ZM11.75 9.5C11.75 7.70507 13.2051 6.25 15 6.25C16.7949 6.25 18.25 7.70507 18.25 9.5C18.25 11.2949 16.7949 12.75 15 12.75C13.2051 12.75 11.75 11.2949 11.75 9.5Z" fill="black"/>
<path d="M21 6.75C20.5858 6.75 20.25 7.08579 20.25 7.5C20.25 7.91421 20.5858 8.25 21 8.25C22.3765 8.25 23.25 9.15573 23.25 10C23.25 10.8443 22.3765 11.75 21 11.75C20.5858 11.75 20.25 12.0858 20.25 12.5C20.25 12.9142 20.5858 13.25 21 13.25C22.9372 13.25 24.75 11.9172 24.75 10C24.75 8.08285 22.9372 6.75 21 6.75Z" fill="black"/>
<path d="M9.75 7.5C9.75 7.08579 9.41421 6.75 9 6.75C7.06278 6.75 5.25 8.08285 5.25 10C5.25 11.9172 7.06278 13.25 9 13.25C9.41421 13.25 9.75 12.9142 9.75 12.5C9.75 12.0858 9.41421 11.75 9 11.75C7.62351 11.75 6.75 10.8443 6.75 10C6.75 9.15573 7.62351 8.25 9 8.25C9.41421 8.25 9.75 7.91421 9.75 7.5Z" fill="black"/>
<path fill-rule="evenodd" clip-rule="evenodd" d="M15 15.75C13.2157 15.75 11.5665 16.2308 10.3413 17.0475C9.12146 17.8608 8.25 19.0666 8.25 20.5C8.25 21.9334 9.12146 23.1392 10.3413 23.9525C11.5665 24.7692 13.2157 25.25 15 25.25C16.7843 25.25 18.4335 24.7692 19.6587 23.9525C20.8785 23.1392 21.75 21.9334 21.75 20.5C21.75 19.0666 20.8785 17.8608 19.6587 17.0475C18.4335 16.2308 16.7843 15.75 15 15.75ZM9.75 20.5C9.75 19.7242 10.2217 18.9301 11.1734 18.2956C12.1198 17.6646 13.4706 17.25 15 17.25C16.5294 17.25 17.8802 17.6646 18.8266 18.2956C19.7783 18.9301 20.25 19.7242 20.25 20.5C20.25 21.2758 19.7783 22.0699 18.8266 22.7044C17.8802 23.3354 16.5294 23.75 15 23.75C13.4706 23.75 12.1198 23.3354 11.1734 22.7044C10.2217 22.0699 9.75 21.2758 9.75 20.5Z" fill="black"/>
<path d="M22.2674 17.3393C22.3561 16.9347 22.7561 16.6787 23.1607 16.7674C24.1225 16.9783 24.9893 17.3593 25.6328 17.8859C26.2758 18.412 26.75 19.1352 26.75 20C26.75 20.8648 26.2758 21.588 25.6328 22.1141C24.9893 22.6407 24.1225 23.0217 23.1607 23.2326C22.7561 23.3213 22.3561 23.0653 22.2674 22.6607C22.1787 22.2561 22.4347 21.8561 22.8393 21.7674C23.6317 21.5936 24.2649 21.2952 24.6829 20.9532C25.1014 20.6108 25.25 20.2763 25.25 20C25.25 19.7237 25.1014 19.3892 24.6829 19.0468C24.2649 18.7048 23.6317 18.4064 22.8393 18.2326C22.4347 18.1439 22.1787 17.7439 22.2674 17.3393Z" fill="black"/>
<path d="M6.83935 16.7674C7.24395 16.6787 7.64387 16.9347 7.73259 17.3393C7.82132 17.7439 7.56525 18.1439 7.16065 18.2326C6.36829 18.4064 5.73505 18.7048 5.31712 19.0468C4.89863 19.3892 4.75 19.7237 4.75 20C4.75 20.2763 4.89863 20.6108 5.31712 20.9532C5.73505 21.2952 6.36829 21.5936 7.16065 21.7674C7.56525 21.8561 7.82132 22.2561 7.73259 22.6607C7.64387 23.0653 7.24395 23.3213 6.83935 23.2326C5.87746 23.0217 5.0107 22.6407 4.36719 22.1141C3.72425 21.588 3.25 20.8648 3.25 20C3.25 19.1352 3.72425 18.412 4.36719 17.8859C5.0107 17.3593 5.87746 16.9783 6.83935 16.7674Z" fill="black"/>
</svg>
